<svg width="20" height="20" viewBox="0 0 20 20" fill="none" xmlns="http://www.w3.org/2000/svg">
<g clip-path="url(#clip0)">
<path d="M18.7382 6.66602L16.0461 5.39235C15.9288 5.3368 15.7963 5.3218 15.6695 5.34981L13.2525 5.88231L8.11147 0.46552C7.97006 0.316575 7.76108 0.252552 7.56041 0.296653L4.49405 0.972238C4.0753 1.0645 3.89402 1.5622 4.15605 1.90216L8.09877 7.01781L4.15577 7.88656L3.19288 5.29465C3.09226 5.02383 2.80921 4.86657 2.52624 4.92465L0.468554 5.34539C0.195859 5.4011 0 5.64106 0 5.91942V11.7576C0 11.9117 0.0606249 12.0595 0.168789 12.1691C1.47761 13.4959 3.34136 14.0448 5.15046 13.653L9.34463 12.7445L7.92014 19.0007C7.82451 19.4208 8.19951 19.795 8.61752 19.703L11.6839 19.0274C11.8843 18.9833 12.047 18.8376 12.1128 18.6432L14.4877 11.6305L18.2623 10.8128C20.3218 10.3668 20.6386 7.56519 18.7382 6.66602ZM15.726 6.5373L17.4703 7.36258L15.7073 7.76453L15.1477 6.66473L15.726 6.5373ZM5.6478 1.91802L7.48932 1.51228L11.9163 6.17668L9.36353 6.7391L5.6478 1.91802ZM11.1089 17.9542L9.26795 18.3597L10.6088 12.4707L13.1524 11.9197L11.1089 17.9542ZM18.0143 9.66753L4.90237 12.5077C3.55839 12.7988 2.18109 12.4258 1.17187 11.5083V6.39766L2.26917 6.17328L3.23476 8.77246C3.33652 9.04644 3.62456 9.20359 3.91011 9.14062L13.9654 6.92519L14.8701 8.70308C14.9925 8.94359 15.262 9.06804 15.5225 9.00863L18.7571 8.27113C18.968 8.81566 18.7035 9.5182 18.0143 9.66753Z" fill="white"/>
<path d="M12.1696 8.52092C11.8537 8.59053 11.654 8.90315 11.7235 9.21916C11.7931 9.53518 12.1056 9.73498 12.4215 9.66537C12.7374 9.59576 12.9371 9.28314 12.8675 8.96713C12.7979 8.65111 12.4855 8.45131 12.1696 8.52092Z" fill="white"/>
<path d="M9.88172 9.02481C9.56582 9.09442 9.36614 9.40704 9.43571 9.72306C9.50528 10.0391 9.81774 10.2389 10.1336 10.1693C10.4495 10.0997 10.6492 9.78704 10.5797 9.47103C10.5101 9.15501 10.1976 8.95524 9.88172 9.02481Z" fill="white"/>
<path d="M7.59388 9.52898C7.27798 9.59859 7.07829 9.9112 7.14786 10.2272C7.21743 10.5432 7.5299 10.743 7.84579 10.6734C8.16169 10.6038 8.36138 10.2912 8.29181 9.97519C8.22228 9.65913 7.90978 9.45937 7.59388 9.52898Z" fill="white"/>
<path d="M6.01716 10.6063C6.01813 10.2827 5.75669 10.0196 5.43321 10.0186C5.10974 10.0176 4.84672 10.2792 4.84575 10.6028C4.84478 10.9264 5.10622 11.1895 5.4297 11.1905C5.75317 11.1914 6.01619 10.9299 6.01716 10.6063Z" fill="white"/>
</g>
<defs>
<clipPath id="clip0">
<rect width="20" height="20" fill="white"/>
</clipPath>
</defs>
</svg>
