<svg width="20" height="20" viewBox="0 0 20 20" fill="none" xmlns="http://www.w3.org/2000/svg">
<path d="M11.7578 13.5288H8.24219C7.91859 13.5288 7.65625 13.7914 7.65625 14.1153C7.65625 14.4392 7.91859 14.7019 8.24219 14.7019H11.7578C12.0814 14.7019 12.3438 14.4393 12.3438 14.1153C12.3438 13.7914 12.0814 13.5288 11.7578 13.5288Z" fill="#2F4858"/>
<path d="M19.8284 3.53445L18.8518 2.55695C18.7419 2.44695 18.5929 2.38516 18.4375 2.38516H17.69C17.609 1.05633 16.5038 0 15.1562 0H4.84375C3.49621 0 2.39102 1.05633 2.30996 2.38516H1.5625C1.40707 2.38516 1.25805 2.44695 1.1482 2.55695L0.171641 3.53445C0.0617188 3.64445 0 3.79363 0 3.94918V6.88172C0 7.20563 0.262344 7.46824 0.585938 7.46824C0.909531 7.46824 1.17188 7.20566 1.17188 6.88172V4.19211L1.8052 3.55816H2.30469V16.6569C2.30469 17.0865 2.58313 17.452 2.96875 17.5828V19.0225C2.96875 19.5615 3.40684 20 3.94531 20H5.78125C6.31973 20 6.75781 19.5615 6.75781 19.0225V17.6344H13.2422V19.0225C13.2422 19.5615 13.6803 20 14.2188 20H16.0547C16.5932 20 17.0312 19.5615 17.0312 19.0225V17.5828C17.4169 17.452 17.6953 17.0866 17.6953 16.6569V3.55816H18.1948L18.8281 4.19211V6.88172C18.8281 7.20563 19.0905 7.46824 19.4141 7.46824C19.7377 7.46824 20 7.20566 20 6.88172V3.94918C20 3.79363 19.9383 3.64445 19.8284 3.53445ZM16.5234 16.4614H14.3177L14.5518 15.7273L16.5234 15.3852V16.4614ZM6.91242 16.4614L6.45664 15.0319C6.39023 14.8236 6.21367 14.6696 5.99848 14.6323L3.47656 14.1947V11.8354C5.95312 12.2688 14.0515 12.268 16.5234 11.8354V14.1947L14.0015 14.6323C13.7863 14.6696 13.6098 14.8236 13.5433 15.0318L13.0875 16.4614H6.91242V16.4614ZM3.47656 16.4614V15.3852L5.44828 15.7273L5.68234 16.4614H3.47656ZM4.84375 1.17301H15.1562C15.9101 1.17301 16.5234 1.78691 16.5234 2.54152V10.6428C14.4566 11.102 5.54207 11.1017 3.47656 10.6428V2.54156C3.47656 1.78691 4.08988 1.17301 4.84375 1.17301ZM4.14062 18.827V17.6344H5.58594V18.827H4.14062ZM14.4141 18.827V17.6344H15.8594V18.827H14.4141Z" fill="#2F4858"/>
</svg>
