<svg width="16" height="16" viewBox="0 0 16 16" fill="none" xmlns="http://www.w3.org/2000/svg">
<path d="M14.5938 1H12.2203V0.46875C12.2203 0.209875 12.0104 0 11.7516 0C11.4927 0 11.2828 0.209875 11.2828 0.46875V1H8.47031V0.46875C8.47031 0.209875 8.26044 0 8.00156 0C7.74269 0 7.53281 0.209875 7.53281 0.46875V1H4.72031V0.46875C4.72031 0.209875 4.51044 0 4.25156 0C3.99269 0 3.78281 0.209875 3.78281 0.46875V1H1.40625C0.630844 1 0 1.63084 0 2.40625V14.5938C0 15.3692 0.630844 16 1.40625 16H14.5938C15.3692 16 16 15.3692 16 14.5938V2.40625C16 1.63084 15.3692 1 14.5938 1ZM15.0625 14.5938C15.0625 14.8522 14.8522 15.0625 14.5938 15.0625H1.40625C1.14778 15.0625 0.9375 14.8522 0.9375 14.5938V2.40625C0.9375 2.14778 1.14778 1.9375 1.40625 1.9375H3.78281V2.34375C3.78281 2.60262 3.99269 2.8125 4.25156 2.8125C4.51044 2.8125 4.72031 2.60262 4.72031 2.34375V1.9375H7.53281V2.34375C7.53281 2.60262 7.74269 2.8125 8.00156 2.8125C8.26044 2.8125 8.47031 2.60262 8.47031 2.34375V1.9375H11.2828V2.34375C11.2828 2.60262 11.4927 2.8125 11.7516 2.8125C12.0104 2.8125 12.2203 2.60262 12.2203 2.34375V1.9375H14.5938C14.8522 1.9375 15.0625 2.14778 15.0625 2.40625V14.5938Z" fill="#2F4858"/>
<path d="M5.18584 7.53125H3.31396C3.05509 7.53125 2.84521 7.74112 2.84521 8V9.87187C2.84521 10.1307 3.05509 10.3406 3.31396 10.3406H5.18584C5.44472 10.3406 5.65459 10.1307 5.65459 9.87187V8C5.65459 7.74112 5.44472 7.53125 5.18584 7.53125ZM4.71709 9.40312H3.78271V8.46875H4.71709V9.40312Z" fill="#2F4858"/>
<path d="M5.18584 11.2781H3.31396C3.05509 11.2781 2.84521 11.488 2.84521 11.7468V13.6187C2.84521 13.8776 3.05509 14.0875 3.31396 14.0875H5.18584C5.44472 14.0875 5.65459 13.8776 5.65459 13.6187V11.7468C5.65459 11.488 5.44472 11.2781 5.18584 11.2781ZM4.71709 13.15H3.78271V12.2156H4.71709V13.15Z" fill="#2F4858"/>
<path d="M8.93755 7.53125H7.06567C6.8068 7.53125 6.59692 7.74112 6.59692 8V9.87187C6.59692 10.1307 6.8068 10.3406 7.06567 10.3406H8.93755C9.19642 10.3406 9.4063 10.1307 9.4063 9.87187V8C9.4063 7.74112 9.19642 7.53125 8.93755 7.53125ZM8.4688 9.40312H7.53442V8.46875H8.4688V9.40312Z" fill="#2F4858"/>
<path d="M8.93755 11.2781H7.06567C6.8068 11.2781 6.59692 11.488 6.59692 11.7468V13.6187C6.59692 13.8776 6.8068 14.0875 7.06567 14.0875H8.93755C9.19642 14.0875 9.4063 13.8776 9.4063 13.6187V11.7468C9.4063 11.488 9.19642 11.2781 8.93755 11.2781ZM8.4688 13.15H7.53442V12.2156H8.4688V13.15Z" fill="#2F4858"/>
<path d="M12.689 7.53125H10.8171C10.5583 7.53125 10.3484 7.74112 10.3484 8V9.87187C10.3484 10.1307 10.5583 10.3406 10.8171 10.3406H12.689C12.9479 10.3406 13.1578 10.1307 13.1578 9.87187V8C13.1578 7.74112 12.9479 7.53125 12.689 7.53125ZM12.2203 9.40312H11.2859V8.46875H12.2203V9.40312Z" fill="#2F4858"/>
<path d="M5.18584 3.78442H3.31396C3.05509 3.78442 2.84521 3.9943 2.84521 4.25317V6.12505C2.84521 6.38393 3.05509 6.5938 3.31396 6.5938H5.18584C5.44472 6.5938 5.65459 6.38393 5.65459 6.12505V4.25317C5.65459 3.9943 5.44472 3.78442 5.18584 3.78442ZM4.71709 5.6563H3.78271V4.72192H4.71709V5.6563Z" fill="#2F4858"/>
<path d="M8.93755 3.78442H7.06567C6.8068 3.78442 6.59692 3.9943 6.59692 4.25317V6.12505C6.59692 6.38393 6.8068 6.5938 7.06567 6.5938H8.93755C9.19642 6.5938 9.4063 6.38393 9.4063 6.12505V4.25317C9.4063 3.9943 9.19642 3.78442 8.93755 3.78442ZM8.4688 5.6563H7.53442V4.72192H8.4688V5.6563Z" fill="#2F4858"/>
<path d="M12.689 3.78442H10.8171C10.5583 3.78442 10.3484 3.9943 10.3484 4.25317V6.12505C10.3484 6.38393 10.5583 6.5938 10.8171 6.5938H12.689C12.9479 6.5938 13.1578 6.38393 13.1578 6.12505V4.25317C13.1578 3.9943 12.9479 3.78442 12.689 3.78442ZM12.2203 5.6563H11.2859V4.72192H12.2203V5.6563Z" fill="#2F4858"/>
<path d="M12.689 11.2781H10.8171C10.5583 11.2781 10.3484 11.488 10.3484 11.7468V13.6187C10.3484 13.8776 10.5583 14.0875 10.8171 14.0875H12.689C12.9479 14.0875 13.1578 13.8776 13.1578 13.6187V11.7468C13.1578 11.488 12.9479 11.2781 12.689 11.2781ZM12.2203 13.15H11.2859V12.2156H12.2203V13.15Z" fill="#2F4858"/>
</svg>
