<svg width="28" height="28" viewBox="0 0 28 28" fill="none" xmlns="http://www.w3.org/2000/svg">
<g clip-path="url(#clip0)">
<path d="M14.0046 6.81104C10.0345 6.81104 6.82031 10.0287 6.82031 13.9954C6.82031 17.9655 10.038 21.1797 14.0046 21.1797C17.9748 21.1797 21.189 17.962 21.189 13.9954C21.189 10.0252 17.9713 6.81104 14.0046 6.81104ZM14.0046 18.6585C11.4275 18.6585 9.34148 16.5714 9.34148 13.9954C9.34148 11.4194 11.4286 9.3322 14.0046 9.3322C16.5806 9.3322 18.6678 11.4194 18.6678 13.9954C18.669 16.5714 16.5818 18.6585 14.0046 18.6585Z" fill="white"/>
<path d="M19.7724 0.0891718C17.1964 -0.0309949 10.8159 -0.0251615 8.23761 0.0891718C5.97194 0.195338 3.97344 0.742505 2.36228 2.35367C-0.33039 5.04634 0.0137769 8.67467 0.0137769 13.9958C0.0137769 19.4418 -0.289556 22.9862 2.36228 25.638C5.06544 28.34 8.74628 27.9865 14.0044 27.9865C19.3991 27.9865 21.2611 27.99 23.1686 27.2515C25.7621 26.2447 27.7198 23.9265 27.9111 19.7627C28.0324 17.1855 28.0254 10.8062 27.9111 8.22784C27.6801 3.31267 25.0423 0.331838 19.7724 0.0891718ZM23.8499 23.8565C22.0848 25.6217 19.6359 25.4642 13.9706 25.4642C8.13728 25.4642 5.79811 25.5505 4.09128 23.839C2.12544 21.8825 2.48128 18.7407 2.48128 13.9772C2.48128 7.53134 1.81978 2.88917 8.28894 2.55784C9.77528 2.50534 10.2128 2.48784 13.9543 2.48784L14.0068 2.52284C20.2239 2.52284 25.1018 1.87184 25.3946 8.33984C25.4611 9.81567 25.4763 10.259 25.4763 13.9947C25.4751 19.7603 25.5848 22.1135 23.8499 23.8565Z" fill="white"/>
<path d="M21.4738 8.2063C22.401 8.2063 23.1526 7.45466 23.1526 6.52746C23.1526 5.60027 22.401 4.84863 21.4738 4.84863C20.5466 4.84863 19.7949 5.60027 19.7949 6.52746C19.7949 7.45466 20.5466 8.2063 21.4738 8.2063Z" fill="white"/>
</g>
<defs>
<clipPath id="clip0">
<rect width="28" height="28" fill="white"/>
</clipPath>
</defs>
</svg>
