<svg width="28" height="28" viewBox="0 0 28 28" fill="none" xmlns="http://www.w3.org/2000/svg">
<g clip-path="url(#clip0)">
<path d="M27.3806 6.9171L27.4156 7.14577C27.0773 5.94527 26.1638 5.01893 25.0029 4.68177L24.9784 4.67593C22.7956 4.08327 14.0118 4.08327 14.0118 4.08327C14.0118 4.08327 5.2501 4.0716 3.0451 4.67593C1.8621 5.01893 0.947433 5.94527 0.614932 7.12127L0.609099 7.14577C-0.206401 11.4053 -0.212234 16.5234 0.645266 21.0839L0.609099 20.8529C0.947433 22.0534 1.86093 22.9798 3.02177 23.3169L3.04627 23.3228C5.22677 23.9166 14.0129 23.9166 14.0129 23.9166C14.0129 23.9166 22.7734 23.9166 24.9796 23.3228C26.1638 22.9798 27.0784 22.0534 27.4109 20.8774L27.4168 20.8529C27.7878 18.8719 28.0001 16.5923 28.0001 14.2636C28.0001 14.1784 28.0001 14.0921 27.9989 14.0058C28.0001 13.9264 28.0001 13.8319 28.0001 13.7374C28.0001 11.4076 27.7878 9.12793 27.3806 6.9171ZM11.2094 18.2594V9.75093L18.5198 14.0116L11.2094 18.2594Z" fill="white"/>
</g>
<defs>
<clipPath id="clip0">
<rect width="28" height="28" fill="white"/>
</clipPath>
</defs>
</svg>
